<svg width="313" height="126" viewBox="0 0 313 126" fill="none" xmlns="http://www.w3.org/2000/svg">
<g filter="url(#filter0_d_1_2)">
<path d="M0.710228 94H-0.289772V95H0.710228V94ZM0.710228 0.909088V-0.0909119H-0.289772V0.909088H0.710228ZM11.983 0.909088H12.983V-0.0909119H11.983V0.909088ZM11.983 84H10.983V85H11.983V84ZM55.2557 84H56.2557V83H55.2557V84ZM55.2557 94V95H56.2557V94H55.2557ZM1.71023 94V0.909088H-0.289772V94H1.71023ZM0.710228 1.90909H11.983V-0.0909119H0.710228V1.90909ZM10.983 0.909088V84H12.983V0.909088H10.983ZM11.983 85H55.2557V83H11.983V85ZM54.2557 84V94H56.2557V84H54.2557ZM55.2557 93H0.710228V95H55.2557V93ZM72.7102 94H71.7102V95H72.7102V94ZM72.7102 0.909088V-0.0909119H71.7102V0.909088H72.7102ZM121.301 4.27273L120.831 5.15545L120.836 5.15806L121.301 4.27273ZM130.71 13.2273L129.833 13.7081L129.835 13.7111L130.71 13.2273ZM131.665 35.5455L130.787 35.0659L130.783 35.0738L131.665 35.5455ZM126.119 41.7273L125.57 40.8918L125.565 40.8952L126.119 41.7273ZM118.71 45.0909L118.447 44.1261L117.71 44.3271V45.0909H118.71ZM118.71 46H117.71V46.9382L118.647 46.998L118.71 46ZM127.301 49L126.767 49.8455L126.767 49.8455L127.301 49ZM134.256 81.8636L135.125 82.3583L135.125 82.3583L134.256 81.8636ZM124.21 90.7273L123.78 89.8246L123.78 89.8246L124.21 90.7273ZM83.983 84H82.983V85H83.983V84ZM122.028 79.7273L122.706 80.4626L122.706 80.4623L122.028 79.7273ZM124.301 60.5455L123.442 61.0571L123.445 61.0614L124.301 60.5455ZM117.438 54.0909L116.955 54.9668L116.962 54.9705L117.438 54.0909ZM83.983 51.6364V50.6364H82.983V51.6364H83.983ZM83.983 41.8182H82.983V42.8182H83.983V41.8182ZM114.074 39.8182L113.639 38.9179L113.635 38.9198L114.074 39.8182ZM120.619 34.1818L119.79 33.6223L119.786 33.6295L120.619 34.1818ZM118.801 15.2273L118.09 15.9306L118.094 15.9344L118.801 15.2273ZM83.983 10.9091V9.90909H82.983V10.9091H83.983ZM73.7102 94V0.909088H71.7102V94H73.7102ZM72.7102 1.90909H105.256V-0.0909119H72.7102V1.90909ZM105.256 1.90909C111.633 1.90909 116.806 3.01267 120.831 5.15543L121.771 3.39002C117.372 1.04793 111.848 -0.0909119 105.256 -0.0909119V1.90909ZM120.836 5.15806C124.894 7.28922 127.878 10.1416 129.833 13.7081L131.587 12.7464C129.422 8.79776 126.132 5.68047 121.766 3.3874L120.836 5.15806ZM129.835 13.7111C131.808 17.2803 132.801 21.2484 132.801 25.6364H134.801C134.801 20.9334 133.733 16.6288 131.585 12.7434L129.835 13.7111ZM132.801 25.6364C132.801 29.5245 132.108 32.6491 130.787 35.0659L132.542 36.025C134.07 33.2297 134.801 29.7482 134.801 25.6364H132.801ZM130.783 35.0738C129.462 37.5437 127.723 39.4749 125.57 40.8919L126.669 42.5627C129.121 40.9493 131.08 38.7593 132.547 36.0171L130.783 35.0738ZM125.565 40.8952C123.382 42.35 121.011 43.4268 118.447 44.1261L118.973 46.0557C121.742 45.3005 124.311 44.1348 126.674 42.5593L125.565 40.8952ZM117.71 45.0909V46H119.71V45.0909H117.71ZM118.647 46.998C121.299 47.1672 124.003 48.0995 126.767 49.8455L127.835 48.1545C124.842 46.2641 121.819 45.1964 118.774 45.002L118.647 46.998ZM126.767 49.8455C129.488 51.5642 131.79 54.0412 133.66 57.3143L135.397 56.322C133.388 52.8073 130.871 50.0722 127.835 48.1545L126.767 49.8455ZM133.66 57.3143C135.494 60.5231 136.438 64.4938 136.438 69.2727H138.438C138.438 64.2335 137.442 59.9011 135.397 56.322L133.66 57.3143ZM136.438 69.2727C136.438 73.7817 135.415 77.8056 133.387 81.369L135.125 82.3583C137.339 78.4671 138.438 74.0971 138.438 69.2727H136.438ZM133.387 81.369C131.384 84.8882 128.205 87.7144 123.78 89.8246L124.641 91.6299C129.366 89.3765 132.885 86.2937 135.125 82.3583L133.387 81.369ZM123.78 89.8246C119.385 91.9203 113.593 93 106.347 93V95C113.767 95 119.884 93.8979 124.641 91.6299L123.78 89.8246ZM106.347 93H72.7102V95H106.347V93ZM83.983 85H106.347V83H83.983V85ZM106.347 85C113.789 85 119.334 83.5702 122.706 80.4626L121.351 78.9919C118.541 81.5813 113.632 83 106.347 83V85ZM122.706 80.4623C126.024 77.4024 127.71 73.6546 127.71 69.2727H125.71C125.71 73.0726 124.275 76.2946 121.35 78.9922L122.706 80.4623ZM127.71 69.2727C127.71 65.9418 126.859 62.854 125.158 60.0295L123.445 61.0614C124.956 63.5703 125.71 66.3006 125.71 69.2727H127.71ZM125.16 60.0338C123.455 57.1701 121.029 54.8965 117.913 53.2113L116.962 54.9705C119.785 56.4975 121.935 58.5268 123.442 61.0571L125.16 60.0338ZM117.92 53.2151C114.776 51.4826 111.088 50.6364 106.892 50.6364V52.6364C110.817 52.6364 114.16 53.4265 116.955 54.9667L117.92 53.2151ZM106.892 50.6364H83.983V52.6364H106.892V50.6364ZM82.983 51.6364V84H84.983V51.6364H82.983ZM83.983 42.8182H104.892V40.8182H83.983V42.8182ZM104.892 42.8182C108.42 42.8182 111.634 42.1243 114.513 40.7166L113.635 38.9198C111.06 40.1787 108.152 40.8182 104.892 40.8182V42.8182ZM114.509 40.7185C117.419 39.3113 119.742 37.3161 121.453 34.7341L119.786 33.6295C118.284 35.896 116.244 37.6584 113.639 38.9179L114.509 40.7185ZM121.448 34.7413C123.209 32.1325 124.074 29.0839 124.074 25.6364H122.074C122.074 28.7343 121.302 31.3826 119.79 33.6223L121.448 34.7413ZM124.074 25.6364C124.074 21.2849 122.548 17.5594 119.508 14.5202L118.094 15.9344C120.752 18.5921 122.074 21.806 122.074 25.6364H124.074ZM119.512 14.5239C116.397 11.3756 111.566 9.90909 105.256 9.90909V11.9091C111.309 11.9091 115.509 13.3214 118.09 15.9306L119.512 14.5239ZM105.256 9.90909H83.983V11.9091H105.256V9.90909ZM82.983 10.9091V41.8182H84.983V10.9091H82.983ZM155.96 0.909088V-0.0909119H154.96V0.909088H155.96ZM169.415 0.909088L170.34 0.530201L170.086 -0.0909119H169.415V0.909088ZM201.051 78.1818L200.126 78.5607L200.38 79.1818H201.051V78.1818ZM202.142 78.1818V79.1818H202.813L203.067 78.5607L202.142 78.1818ZM233.778 0.909088V-0.0909119H233.107L232.853 0.530201L233.778 0.909088ZM247.233 0.909088H248.233V-0.0909119H247.233V0.909088ZM247.233 94V95H248.233V94H247.233ZM236.688 94H235.688V95H236.688V94ZM236.688 23.2727H237.688V22.2727H236.688V23.2727ZM235.778 23.2727V22.2727H235.108L234.854 22.8923L235.778 23.2727ZM206.688 94V95H207.357L207.612 94.3804L206.688 94ZM196.506 94L195.581 94.3804L195.836 95H196.506V94ZM167.415 23.2727L168.34 22.8923L168.085 22.2727H167.415V23.2727ZM166.506 23.2727V22.2727H165.506V23.2727H166.506ZM166.506 94V95H167.506V94H166.506ZM155.96 94H154.96V95H155.96V94ZM155.96 1.90909H169.415V-0.0909119H155.96V1.90909ZM168.489 1.28798L200.126 78.5607L201.977 77.8029L170.34 0.530201L168.489 1.28798ZM201.051 79.1818H202.142V77.1818H201.051V79.1818ZM203.067 78.5607L234.704 1.28798L232.853 0.530201L201.217 77.8029L203.067 78.5607ZM233.778 1.90909H247.233V-0.0909119H233.778V1.90909ZM246.233 0.909088V94H248.233V0.909088H246.233ZM247.233 93H236.688V95H247.233V93ZM237.688 94V23.2727H235.688V94H237.688ZM236.688 22.2727H235.778V24.2727H236.688V22.2727ZM234.854 22.8923L205.763 93.6196L207.612 94.3804L236.703 23.6531L234.854 22.8923ZM206.688 93H196.506V95H206.688V93ZM197.431 93.6196L168.34 22.8923L166.49 23.6531L195.581 94.3804L197.431 93.6196ZM167.415 22.2727H166.506V24.2727H167.415V22.2727ZM165.506 23.2727V94H167.506V23.2727H165.506ZM166.506 93H155.96V95H166.506V93ZM156.96 94V0.909088H154.96V94H156.96Z" fill="white"/>
</g>
<defs>
<filter id="filter0_d_1_2" x="0.710236" y="0.909088" width="311.423" height="124.991" filterUnits="userSpaceOnUse" color-interpolation-filters="sRGB">
<feFlood flood-opacity="0" result="BackgroundImageFix"/>
<feColorMatrix in="SourceAlpha" type="matrix" values="0 0 0 0 0 0 0 0 0 0 0 0 0 0 0 0 0 0 127 0" result="hardAlpha"/>
<feOffset dx="54" dy="21"/>
<feGaussianBlur stdDeviation="5.45"/>
<feComposite in2="hardAlpha" operator="out"/>
<feColorMatrix type="matrix" values="0 0 0 0 1 0 0 0 0 1 0 0 0 0 1 0 0 0 1 0"/>
<feBlend mode="normal" in2="BackgroundImageFix" result="effect1_dropShadow_1_2"/>
<feBlend mode="normal" in="SourceGraphic" in2="effect1_dropShadow_1_2" result="shape"/>
</filter>
</defs>
</svg>
